M48
; DRILL file {KiCad 7.0.2} date Tue Oct 31 17:13:39 2023
; FORMAT={-:-/ absolute / metric / decimal}
; #@! TF.CreationDate,2023-10-31T17:13:39-03:00
; #@! TF.GenerationSoftware,Kicad,Pcbnew,7.0.2
; #@! TF.FileFunction,Plated,1,2,PTH
FMAT,2
METRIC
; #@! TA.AperFunction,Plated,PTH,ComponentDrill
T1C0.700
; #@! TA.AperFunction,Plated,PTH,ComponentDrill
T2C0.750
; #@! TA.AperFunction,Plated,PTH,ComponentDrill
T3C0.762
; #@! TA.AperFunction,Plated,PTH,ComponentDrill
T4C0.800
; #@! TA.AperFunction,Plated,PTH,ComponentDrill
T5C0.900
; #@! TA.AperFunction,Plated,PTH,ComponentDrill
T6C1.000
; #@! TA.AperFunction,Plated,PTH,ComponentDrill
T7C1.100
; #@! TA.AperFunction,Plated,PTH,ComponentDrill
T8C1.300
; #@! TA.AperFunction,Plated,PTH,ViaDrill
T9C3.000
%
G90
G05
T1
X116.345Y-143.665
X121.425Y-143.665
T2
X128.0Y-133.665
X128.0Y-141.285
X134.185Y-131.0
X141.805Y-131.0
X164.0Y-124.185
X164.0Y-131.805
X165.185Y-119.0
X165.195Y-114.0
X172.805Y-119.0
X172.815Y-114.0
X173.185Y-124.185
X173.185Y-131.805
T3
X125.0Y-62.25
X125.0Y-64.79
X125.0Y-67.33
X125.0Y-69.87
X125.0Y-72.41
X125.0Y-74.95
X125.0Y-77.49
X125.0Y-80.03
X125.0Y-82.57
X125.0Y-85.11
X125.0Y-87.65
X125.0Y-92.73
X125.0Y-95.27
X125.0Y-97.81
X150.25Y-62.34
X150.25Y-64.88
X150.25Y-67.42
X150.25Y-69.96
X150.25Y-72.5
X150.25Y-75.04
X150.25Y-77.58
X150.25Y-80.12
X150.25Y-82.66
X150.25Y-85.2
X150.25Y-87.74
X150.25Y-90.28
X150.25Y-92.82
X150.25Y-95.36
X150.25Y-97.9
X171.0Y-53.38
X171.0Y-55.92
X171.0Y-58.46
X171.0Y-63.54
X171.0Y-66.08
X171.0Y-68.62
X171.0Y-71.16
X171.0Y-73.7
X171.0Y-76.24
X171.0Y-78.78
X171.0Y-81.32
X171.0Y-83.86
X171.0Y-86.4
X171.0Y-88.94
X171.0Y-91.48
X171.0Y-94.02
X171.0Y-96.56
X171.0Y-99.1
X171.0Y-101.64
X188.78Y-53.38
X188.78Y-55.92
X188.78Y-58.46
X188.78Y-61.0
X188.78Y-63.54
X188.78Y-66.08
X188.78Y-68.62
X188.78Y-71.16
X188.78Y-73.7
X188.78Y-76.24
X188.78Y-78.78
X188.78Y-81.32
X188.78Y-83.86
X188.78Y-86.4
X188.78Y-88.94
X188.78Y-91.48
X188.78Y-94.02
X188.78Y-96.56
X188.78Y-99.1
X188.78Y-101.64
T4
X108.0Y-114.0
X110.0Y-119.19
X110.0Y-126.81
X110.0Y-133.045
X110.0Y-140.665
X115.38Y-134.665
X115.38Y-139.0
X115.62Y-114.0
X117.18Y-119.175
X117.18Y-126.795
X119.0Y-114.15
X119.72Y-119.175
X119.72Y-126.795
X122.26Y-119.175
X122.26Y-126.795
X123.0Y-134.665
X123.0Y-139.0
X124.8Y-119.175
X124.8Y-126.795
X126.62Y-114.15
X132.0Y-108.19
X132.0Y-115.81
X132.0Y-119.0
X132.0Y-126.62
X134.38Y-136.0
X137.0Y-108.19
X137.0Y-115.81
X138.0Y-119.19
X138.0Y-126.81
X142.0Y-136.0
X144.0Y-119.19
X144.0Y-126.81
X146.5Y-142.0
X150.0Y-142.0
X159.5Y-103.19
X159.5Y-110.81
X182.0Y-106.19
X182.0Y-113.81
X187.0Y-106.19
X187.0Y-113.81
T5
X158.235Y-97.0
X160.775Y-97.0
T6
X158.0Y-62.0
X160.54Y-62.0
X191.5Y-138.0
X196.46Y-55.0
X199.0Y-55.0
X199.0Y-138.0
T7
X113.0Y-54.96
X113.0Y-57.5
X113.0Y-60.04
X113.0Y-65.0
X113.0Y-67.54
X113.0Y-70.08
X113.0Y-72.62
X113.0Y-77.5
X113.0Y-80.04
X113.0Y-82.58
X113.0Y-85.12
X113.0Y-89.96
X113.0Y-92.5
X113.0Y-95.04
X113.0Y-97.58
T8
X157.84Y-142.0
X162.92Y-142.0
X168.0Y-142.0
X176.92Y-142.305
X182.0Y-142.305
X197.0Y-116.92
X197.0Y-122.0
X197.305Y-103.92
X197.305Y-109.0
T9
X110.5Y-107.0
X160.5Y-68.5
X183.0Y-127.5
T0
M30
