M48
; DRILL file {KiCad 7.0.2} date Fri Aug 18 20:24:25 2023
; FORMAT={-:-/ absolute / inch / decimal}
; #@! TF.CreationDate,2023-08-18T20:24:25-03:00
; #@! TF.GenerationSoftware,Kicad,Pcbnew,7.0.2
; #@! TF.FileFunction,Plated,1,2,PTH
FMAT,2
INCH
; #@! TA.AperFunction,Plated,PTH,ComponentDrill
T1C0.0315
; #@! TA.AperFunction,Plated,PTH,ComponentDrill
T2C0.0394
; #@! TA.AperFunction,Plated,PTH,ComponentDrill
T3C0.0402
; #@! TA.AperFunction,Plated,PTH,ComponentDrill
T4C0.0433
; #@! TA.AperFunction,Plated,PTH,ComponentDrill
T5C0.0512
; #@! TA.AperFunction,Plated,PTH,ComponentDrill
T6C0.0591
; #@! TA.AperFunction,Plated,PTH,ViaDrill
T7C0.1181
; #@! TA.AperFunction,Plated,PTH,ViaDrill
T8C0.1575
%
G90
G05
T1
X2.6378Y-3.6114
X2.6378Y-3.9114
X2.6378Y-4.0807
X2.6378Y-4.3807
X2.7953Y-3.4114
X2.7953Y-3.7114
X2.8921Y-4.2913
X2.9528Y-3.4114
X2.9528Y-3.7114
X2.9921Y-4.2913
X2.9921Y-4.8244
X2.9921Y-5.2244
X3.0921Y-4.2913
X3.189Y-3.5039
X3.189Y-3.6039
X3.189Y-3.7039
X3.189Y-3.8764
X3.189Y-3.9764
X3.189Y-4.0764
X4.8228Y-4.6654
X4.8228Y-4.7638
X4.8228Y-4.9803
X4.8228Y-5.1181
X5.0886Y-5.0787
X5.187Y-5.0787
X5.2264Y-4.2425
X5.2264Y-4.8425
X5.3543Y-4.9484
X5.3543Y-5.2484
X5.4996Y-3.7402
X5.4996Y-3.937
X6.2663Y-2.2441
X6.2663Y-2.3425
T2
X6.7809Y-1.7323
X6.8809Y-1.7323
T3
X7.0953Y-1.8835
X7.0953Y-1.9835
X7.0953Y-2.0835
X7.0953Y-2.1835
X7.0953Y-2.2835
X7.0953Y-2.3835
X7.0953Y-2.4835
X7.0953Y-2.5835
X7.0953Y-2.6835
X7.0953Y-2.7835
X7.0953Y-2.8835
X7.0953Y-2.9835
X7.0953Y-3.0835
X7.0953Y-3.1835
X7.0953Y-3.2835
X7.0953Y-3.3835
X7.0953Y-3.4835
X7.0953Y-3.5835
X7.0953Y-3.6835
X7.0953Y-3.7835
X7.3453Y-3.7744
X7.4453Y-3.7744
X7.5453Y-3.7744
X7.7953Y-1.8835
X7.7953Y-1.9835
X7.7953Y-2.0835
X7.7953Y-2.1835
X7.7953Y-2.2835
X7.7953Y-2.3835
X7.7953Y-2.4835
X7.7953Y-2.5835
X7.7953Y-2.6835
X7.7953Y-2.7835
X7.7953Y-2.8835
X7.7953Y-2.9835
X7.7953Y-3.0835
X7.7953Y-3.1835
X7.7953Y-3.2835
X7.7953Y-3.3835
X7.7953Y-3.4835
X7.7953Y-3.5835
X7.7953Y-3.6835
X7.7953Y-3.7835
T4
X2.5878Y-2.3205
X2.7878Y-2.3205
X2.9878Y-2.3205
X6.2205Y-4.8622
X6.2205Y-4.9622
X6.2205Y-5.0622
X6.2205Y-5.1622
X6.2205Y-5.2622
X6.5748Y-1.9079
X6.5748Y-2.0079
X6.5748Y-2.1079
X6.5748Y-2.3378
X6.5748Y-2.4378
X6.5748Y-2.5378
X6.5748Y-2.6378
X6.6157Y-4.8559
X6.6157Y-4.9559
X6.6157Y-5.0559
X6.6157Y-5.1559
X6.6157Y-5.2559
T5
X2.9799Y-2.665
X2.9799Y-3.0587
X5.9167Y-2.911
X5.9167Y-3.3047
X6.1931Y-4.4278
X6.1931Y-4.6278
X6.6732Y-4.426
X6.6732Y-4.626
T6
X3.3878Y-2.2959
X3.7846Y-2.2959
X4.1878Y-2.2959
X4.2988Y-2.7712
X4.7878Y-2.3008
X4.9988Y-2.9712
X5.2024Y-2.3008
X5.5878Y-2.3008
T7
X3.6063Y-4.4094
X4.2992Y-3.7323
T8
X3.0709Y-1.6535
X3.8583Y-2.6772
X3.8583Y-4.8819
X5.4528Y-2.9921
X5.8268Y-1.6535
X6.6142Y-3.5039
X8.2087Y-1.7126
X8.2283Y-5.315
T0
M30
