M48
; DRILL file {KiCad 7.0.2} date Sun Jun 18 21:07:11 2023
; FORMAT={-:-/ absolute / inch / decimal}
; #@! TF.CreationDate,2023-06-18T21:07:11-03:00
; #@! TF.GenerationSoftware,Kicad,Pcbnew,7.0.2
; #@! TF.FileFunction,Plated,1,2,PTH
FMAT,2
INCH
; #@! TA.AperFunction,Plated,PTH,ComponentDrill
T1C0.0276
; #@! TA.AperFunction,Plated,PTH,ComponentDrill
T2C0.0295
; #@! TA.AperFunction,Plated,PTH,ComponentDrill
T3C0.0300
; #@! TA.AperFunction,Plated,PTH,ComponentDrill
T4C0.0315
; #@! TA.AperFunction,Plated,PTH,ComponentDrill
T5C0.0354
; #@! TA.AperFunction,Plated,PTH,ComponentDrill
T6C0.0394
; #@! TA.AperFunction,Plated,PTH,ComponentDrill
T7C0.0433
; #@! TA.AperFunction,Plated,PTH,ComponentDrill
T8C0.0512
; #@! TA.AperFunction,Plated,PTH,ViaDrill
T9C0.0787
; #@! TA.AperFunction,Plated,PTH,ViaDrill
T10C0.1575
%
G90
G05
T1
X3.8305Y-4.8031
X3.8354Y-5.1181
X4.0305Y-4.8031
X4.0354Y-5.1181
X4.3152Y-4.4805
X4.3406Y-3.5122
X4.3406Y-3.7122
X4.5152Y-4.4805
X4.6457Y-3.5122
X4.6457Y-3.7122
T2
X4.1559Y-4.8031
X4.4559Y-4.8031
X5.4016Y-4.4955
X5.4016Y-4.7955
X5.4945Y-4.2793
X5.4945Y-4.3974
X5.7945Y-4.2793
X5.7945Y-4.3974
X5.874Y-4.4955
X5.874Y-4.7955
T3
X4.7785Y-1.689
X4.7785Y-1.7874
X4.7785Y-1.8858
X4.7785Y-1.9882
X4.7785Y-2.0906
X4.7785Y-2.189
X4.7785Y-2.2913
X4.7785Y-2.3898
X4.7785Y-2.4882
X4.7785Y-2.5906
X4.7785Y-2.689
X4.7785Y-2.7874
X4.7785Y-2.8898
X4.7785Y-2.9882
X4.7785Y-3.0906
X4.7785Y-3.189
X4.7785Y-3.2913
X4.7785Y-3.3898
X4.7785Y-3.4882
X5.7628Y-1.689
X5.7628Y-1.7913
X5.7628Y-1.8898
X5.7628Y-1.9882
X5.7628Y-2.0906
X5.7628Y-2.189
X5.7628Y-2.2874
X5.7628Y-2.3898
X5.7628Y-2.4882
X5.7628Y-2.5906
X5.7628Y-2.689
X5.7628Y-2.7874
X5.7628Y-2.8898
X5.7628Y-2.9882
X5.7628Y-3.0906
X5.7628Y-3.189
X5.7628Y-3.2913
X5.7628Y-3.3898
X5.7628Y-3.4882
T4
X4.1636Y-5.1181
X4.1953Y-3.3843
X4.2028Y-3.1299
X4.2102Y-2.8724
X4.2439Y-3.9961
X4.2439Y-4.2961
X4.3382Y-3.8657
X4.3439Y-3.9961
X4.3439Y-4.2961
X4.4439Y-3.9961
X4.4439Y-4.2961
X4.4636Y-5.1181
X4.4953Y-3.3843
X4.5028Y-3.1299
X4.5102Y-2.8724
X4.5817Y-4.8106
X4.5817Y-5.1106
X4.6382Y-3.8657
X4.877Y-4.2913
X4.877Y-4.4291
X6.061Y-3.5039
X6.061Y-3.8039
X6.2992Y-3.5039
X6.2992Y-3.8039
X6.7028Y-5.1476
X6.8012Y-5.1476
X7.0177Y-5.1476
X7.1555Y-5.1476
T5
X3.9909Y-3.0906
X3.9909Y-3.1906
X3.9909Y-3.3449
X3.9909Y-3.4449
X3.9984Y-2.8331
X3.9984Y-2.9331
T6
X3.7156Y-4.2913
X3.7156Y-4.4882
X3.9124Y-4.2913
X3.9124Y-4.4882
X6.0728Y-4.252
X6.3681Y-4.252
T7
X3.6319Y-2.3772
X3.6319Y-2.4772
X3.6319Y-2.5772
X3.6319Y-2.6772
X3.6319Y-2.7772
X6.7963Y-4.8059
X6.8963Y-4.8059
X6.9963Y-4.8059
X7.0014Y-1.7764
X7.0014Y-1.8764
X7.0014Y-1.9764
X7.0014Y-2.0764
X7.0014Y-2.2488
X7.0014Y-2.3488
X7.0014Y-2.4488
X7.0014Y-2.5488
X7.0014Y-2.7213
X7.0014Y-2.8213
X7.0014Y-2.9213
X7.0014Y-3.0213
X7.0014Y-3.2071
X7.0014Y-3.3071
X7.0014Y-3.4071
T8
X5.4445Y-5.0787
X5.6445Y-5.0787
X5.8445Y-5.0787
X6.2352Y-5.0787
X6.4352Y-5.0787
X6.9833Y-4.1732
X6.9833Y-4.3732
X6.9953Y-3.6797
X6.9953Y-3.8797
T9
X6.7652Y-2.1654
X6.7864Y-3.4646
T10
X3.5433Y-1.6142
X5.0Y-5.1181
X6.2992Y-2.126
T0
M30
