M48
; DRILL file {KiCad 7.0.6} date Fri Jul  7 20:39:57 2023
; FORMAT={-:-/ absolute / inch / decimal}
; #@! TF.CreationDate,2023-07-07T20:39:57-03:00
; #@! TF.GenerationSoftware,Kicad,Pcbnew,7.0.6
; #@! TF.FileFunction,Plated,1,2,PTH
FMAT,2
INCH
; #@! TA.AperFunction,Plated,PTH,ComponentDrill
T1C0.0354
; #@! TA.AperFunction,Plated,PTH,ComponentDrill
T2C0.0394
; #@! TA.AperFunction,Plated,PTH,ComponentDrill
T3C0.0433
; #@! TA.AperFunction,Plated,PTH,ComponentDrill
T4C0.0472
; #@! TA.AperFunction,Plated,PTH,ViaDrill
T5C0.1535
%
G90
G05
T1
X5.2937Y-3.2283
X5.3937Y-3.2283
T2
X3.9839Y-2.5984
X4.2839Y-2.5984
X4.8937Y-2.7165
X4.9937Y-2.7165
X5.0469Y-3.0315
X5.0937Y-2.7165
X5.1937Y-2.7165
X5.2937Y-2.7165
X5.3469Y-3.0315
X5.3937Y-2.7165
X5.4937Y-2.7165
X5.5937Y-2.7165
X5.6937Y-2.7165
X5.7937Y-2.7165
X6.4248Y-2.5984
X6.7248Y-2.5984
T3
X5.2118Y-3.5827
X5.3118Y-3.5827
X5.4118Y-3.5827
X5.5118Y-3.5827
T4
X4.3701Y-2.1654
X6.3386Y-2.1654
X6.7913Y-2.1654
T5
X3.5039Y-1.9685
X3.5039Y-3.7008
X7.2047Y-1.9685
X7.2047Y-3.7008
T4
G00X3.9173Y-2.1654
M15
G01X3.9173Y-2.1654
M16
G05
T0
M30
