M48
; DRILL file {KiCad 7.0.2} date Sat Jul 29 20:35:19 2023
; FORMAT={-:-/ absolute / inch / decimal}
; #@! TF.CreationDate,2023-07-29T20:35:19-03:00
; #@! TF.GenerationSoftware,Kicad,Pcbnew,7.0.2
; #@! TF.FileFunction,Plated,1,2,PTH
FMAT,2
INCH
; #@! TA.AperFunction,Plated,PTH,ComponentDrill
T1C0.0276
; #@! TA.AperFunction,Plated,PTH,ComponentDrill
T2C0.0295
; #@! TA.AperFunction,Plated,PTH,ComponentDrill
T3C0.0300
; #@! TA.AperFunction,Plated,PTH,ComponentDrill
T4C0.0315
; #@! TA.AperFunction,Plated,PTH,ComponentDrill
T5C0.0354
; #@! TA.AperFunction,Plated,PTH,ComponentDrill
T6C0.0394
; #@! TA.AperFunction,Plated,PTH,ComponentDrill
T7C0.0433
; #@! TA.AperFunction,Plated,PTH,ComponentDrill
T8C0.0512
; #@! TA.AperFunction,Plated,PTH,ViaDrill
T9C0.0591
; #@! TA.AperFunction,Plated,PTH,ViaDrill
T10C0.1575
%
G90
G05
T1
X6.2583Y-5.6102
X6.4583Y-5.6102
T2
X6.7717Y-5.2636
X6.7717Y-5.5636
X7.0593Y-5.2953
X7.3593Y-5.2953
X7.6772Y-5.0467
X7.6772Y-5.3467
X7.7041Y-4.7835
X7.7041Y-4.9213
X8.0041Y-4.7835
X8.0041Y-4.9213
X8.0709Y-5.0394
X8.0709Y-5.3394
T3
X7.0921Y-2.2638
X7.0921Y-2.3622
X7.0921Y-2.4606
X7.0921Y-2.563
X7.0921Y-2.6654
X7.0921Y-2.7638
X7.0921Y-2.8661
X7.0921Y-2.9646
X7.0921Y-3.063
X7.0921Y-3.1654
X7.0921Y-3.2638
X7.0921Y-3.3622
X7.0921Y-3.4646
X7.0921Y-3.563
X7.0921Y-3.6654
X7.0921Y-3.7638
X7.0921Y-3.8661
X7.0921Y-3.9646
X7.0921Y-4.063
X7.9921Y-2.2638
X7.9921Y-2.3661
X7.9921Y-2.4646
X7.9921Y-2.563
X7.9921Y-2.6654
X7.9921Y-2.7638
X7.9921Y-2.8622
X7.9921Y-2.9646
X7.9921Y-3.063
X7.9921Y-3.1654
X7.9921Y-3.2638
X7.9921Y-3.3622
X7.9921Y-3.4646
X7.9921Y-3.563
X7.9921Y-3.6654
X7.9921Y-3.7638
X7.9921Y-3.8661
X7.9921Y-3.9646
X7.9921Y-4.063
T4
X5.9449Y-4.8106
X5.9449Y-5.1106
X5.9449Y-5.2315
X5.9449Y-5.5315
X6.2079Y-4.7984
X6.2079Y-5.0984
X6.2083Y-5.315
X6.2083Y-5.4724
X6.2205Y-4.2669
X6.2205Y-4.5669
X6.3079Y-4.7984
X6.3079Y-5.0984
X6.378Y-4.2669
X6.378Y-4.5669
X6.4079Y-4.7984
X6.4079Y-5.0984
X6.5079Y-4.7984
X6.5079Y-5.0984
X6.5083Y-5.315
X6.5083Y-5.4724
X6.5429Y-4.0157
X6.6488Y-4.5669
X6.7717Y-4.7984
X6.7717Y-5.0984
X6.8429Y-4.0157
X6.9488Y-4.5669
X7.0472Y-4.7984
X7.0472Y-5.0984
X7.0622Y-5.4724
X7.0669Y-4.5669
X7.1406Y-5.7283
X7.2783Y-5.7283
X7.3228Y-4.8008
X7.3228Y-5.1008
X7.3622Y-5.4724
X7.3669Y-4.5669
X8.1693Y-2.5
X8.1768Y-2.7362
X8.2677Y-4.2126
X8.2677Y-4.5126
X8.4646Y-4.2201
X8.4646Y-4.5201
X8.4693Y-2.5
X8.4768Y-2.7362
X8.9567Y-5.8268
X9.0551Y-5.8268
X9.2717Y-5.8268
X9.4094Y-5.8268
T5
X6.2386Y-4.0157
X6.3386Y-4.0157
X8.7205Y-2.5
X8.7205Y-2.7362
X8.8205Y-2.5
X8.8205Y-2.7362
T6
X8.3858Y-5.0394
X8.6811Y-5.0394
T7
X5.8465Y-3.0661
X5.8465Y-3.1661
X5.8465Y-3.2661
X5.8465Y-3.3661
X5.8465Y-3.4661
X9.0339Y-5.4703
X9.1339Y-5.4703
X9.2126Y-2.2998
X9.2126Y-2.3998
X9.2126Y-2.4998
X9.2126Y-2.5998
X9.2126Y-2.7998
X9.2126Y-2.8998
X9.2126Y-2.9998
X9.2126Y-3.0998
X9.2126Y-3.3039
X9.2126Y-3.4039
X9.2126Y-3.5039
X9.2126Y-3.6039
X9.2126Y-3.8039
X9.2126Y-3.9039
X9.2126Y-4.0039
X9.2339Y-5.4703
T8
X7.6738Y-5.7874
X7.8738Y-5.7874
X8.0738Y-5.7874
X8.4252Y-5.7874
X8.6252Y-5.7874
X9.2126Y-4.2703
X9.2126Y-4.4703
X9.2126Y-4.8
X9.2126Y-5.0
T9
X9.0157Y-2.6772
X9.0157Y-4.0945
T10
X5.8268Y-2.3228
X5.8858Y-5.7874
X8.6811Y-3.2087
T0
M30
